<svg width="360" height="112" viewBox="0 0 360 112" fill="none" xmlns="http://www.w3.org/2000/svg">
<g clip-path="url(#clip0_1595_1553)">
<path d="M142.498 38.4211H156.677C162.12 38.4211 166.589 42.6435 166.589 47.8963V64.9539C166.589 70.1619 162.12 74.4851 156.677 74.4851H142.498V38.4211ZM156.677 68.9187C158.94 68.9187 160.832 67.1715 160.832 64.9539V47.8963C160.832 45.6787 158.996 43.9315 156.677 43.9315H148.266V68.9187H156.677Z" fill="white"/>
<path d="M171.494 68.9748H180.274V53.6196H171.494V48.1092H186.042V68.9748H194.879V74.4852H171.482V68.9748H171.494ZM179.636 37.906H186.054V43.73H179.636V37.906Z" fill="white"/>
<path d="M198.822 48.1094H204.59V51.9174L210.414 48.1094H212.139C217.201 48.1094 221.413 52.3318 221.413 57.5846V59.5446H215.645V57.5846C215.645 55.423 214.189 53.6198 212.139 53.6198H211.601L204.59 58.1558V74.4854H198.822V48.1094Z" fill="white"/>
<path d="M224.582 64.9542V57.5846C224.582 52.3318 229.006 48.1094 234.449 48.1094H238.761C244.092 48.1094 248.46 52.1302 248.684 57.1814V62.3894H230.361V64.9654C230.361 67.183 232.198 68.9302 234.46 68.9302H238.772C241.035 68.9302 242.928 67.183 242.928 64.9654V64.4502H248.696V64.9654C248.696 70.2182 244.272 74.4966 238.772 74.4966H234.46C229.017 74.4966 224.593 70.1734 224.593 64.9654L224.582 64.9542ZM242.905 58.4582V57.5846C242.905 55.367 241.068 53.6198 238.75 53.6198H234.438C232.12 53.6198 230.339 55.423 230.339 57.5846V58.4582H242.894H242.905Z" fill="white"/>
<path d="M253.355 64.9542V57.5846C253.355 52.3318 257.779 48.1094 263.223 48.1094H267.535C273.034 48.1094 277.458 52.3318 277.458 57.5846V58.0998H271.69V57.5846C271.69 55.367 269.853 53.6198 267.535 53.6198H263.223C260.904 53.6198 259.123 55.423 259.123 57.5846V64.9542C259.123 67.1718 260.96 68.919 263.223 68.919H267.535C269.797 68.919 271.69 67.1718 271.69 64.9542V64.439H277.458V64.9542C277.458 70.207 273.034 74.4854 267.535 74.4854H263.223C257.779 74.4854 253.355 70.1622 253.355 64.9542Z" fill="white"/>
<path d="M287.795 65.0098V53.6194H279.439V48.109H287.795V41.4114H293.563V48.109H303.531V53.6194H293.563V65.0098C293.563 67.2722 295.343 68.9746 297.662 68.9746H303.542V74.485H297.662C292.219 74.485 287.795 70.2626 287.795 65.0098Z" fill="white"/>
<path d="M307.25 65.055V57.5846C307.25 52.3318 311.674 48.1094 317.117 48.1094H321.429C326.928 48.1094 331.352 52.3318 331.352 57.5846V65.055C331.352 70.3078 326.928 74.4854 321.429 74.4854H317.117C311.674 74.4854 307.25 70.3078 307.25 65.055ZM317.117 68.975H321.429C323.748 68.975 325.584 67.2726 325.584 65.055V57.5846C325.584 55.367 323.748 53.6198 321.429 53.6198H317.117C314.799 53.6198 313.018 55.367 313.018 57.5846V65.055C313.018 67.2726 314.855 68.919 317.117 68.975Z" fill="white"/>
<path d="M337.008 48.1094H342.776V51.9174L348.6 48.1094H350.325C355.387 48.1094 359.598 52.3318 359.598 57.5846V59.5446H353.83V57.5846C353.83 55.423 352.374 53.6198 350.325 53.6198H349.787L342.776 58.1558V74.4854H337.008V48.1094Z" fill="white"/>
<rect width="112" height="112" fill="white"/>
<path d="M45.8285 45.9938L31.9144 77.2158C31.3401 78.5044 32.6416 79.83 33.9406 79.2794L65.1077 66.0672C65.6822 65.8237 66.0553 65.2602 66.0553 64.6363V46.6265C66.0553 45.7681 65.3595 45.0723 64.5011 45.0723H47.2481C46.6345 45.0723 46.0783 45.4333 45.8285 45.9938Z" fill="white" stroke="white" stroke-width="2.33131"/>
<path d="M85.196 27.0894C86.0883 28.0116 86.6309 29.636 85.7954 31.2064L66.8817 66.9222L66.7159 67.2081C66.3633 67.7651 65.8865 68.2336 65.3231 68.576L65.0345 68.7362L30.9573 85.9989L30.9566 85.9968C29.4106 86.7903 27.8203 86.2657 26.9046 85.3905C25.9836 84.51 25.3874 82.9356 26.1208 81.3488H26.1194L42.2897 46.2055C42.7045 45.3041 43.4203 44.5735 44.3136 44.1415L81.1094 26.3492C82.7034 25.5746 84.304 26.168 85.196 27.0894ZM59.9197 54.255C59.7269 53.2921 59.0316 52.5122 58.1091 52.2055L57.9213 52.1503L46.8424 49.3329L33.3355 78.6903L61.9112 64.2139L59.9197 54.255Z" fill="black"/>
</g>
<defs>
<clipPath id="clip0_1595_1553">
<rect width="360" height="112" fill="white"/>
</clipPath>
</defs>
</svg>
